<?xml version="1.0" standalone="no"?>
<!DOCTYPE svg PUBLIC "-//W3C//DTD SVG 20010904//EN"
 "http://www.w3.org/TR/2001/REC-SVG-20010904/DTD/svg10.dtd">
<svg version="1.0" xmlns="http://www.w3.org/2000/svg"
 width="256.000000pt" height="256.000000pt" viewBox="0 0 256.000000 256.000000"
 preserveAspectRatio="xMidYMid meet">
<metadata>
Created by potrace 1.14, written by Peter Selinger 2001-2017
</metadata>
<g transform="translate(0.000000,256.000000) scale(0.100000,-0.100000)"
fill="#000000" stroke="none">
<path d="M1815 2367 c-7 -4 -28 -33 -45 -65 -62 -111 -77 -138 -162 -287 -47
-82 -95 -166 -105 -185 -35 -61 -222 -389 -303 -530 -152 -266 -145 -250 -127
-280 65 -109 457 -815 457 -821 0 -11 0 -11 250 -13 203 -2 230 0 230 13 0 4
-103 194 -230 422 -126 228 -230 421 -230 429 0 8 16 41 35 73 19 32 35 59 35
61 0 2 45 81 100 176 55 95 100 174 100 175 0 2 68 121 150 265 83 144 150
264 150 265 0 2 26 48 58 102 32 54 61 105 65 113 4 8 16 30 28 49 11 18 17
36 14 39 -9 9 -454 8 -470 -1z"/>
<path d="M378 1969 c-9 -6 3 -32 81 -172 115 -207 172 -320 167 -332 -3 -8
-21 -40 -41 -70 -19 -31 -35 -57 -35 -59 0 -1 -63 -108 -139 -236 -77 -129
-138 -237 -135 -242 3 -4 110 -8 238 -8 l233 0 54 90 c30 50 62 103 71 118 10
15 21 33 25 41 3 8 34 60 68 115 34 56 83 138 109 183 l47 81 -25 44 c-13 23
-74 131 -135 238 -61 107 -111 198 -111 202 0 4 -3 8 -7 9 -33 5 -457 3 -465
-2z"/>
</g>
</svg>
